<?xml version="1.0" encoding="UTF-8" standalone="no"?>
<!-- Created by diasvg.py -->
<svg width="20.857cm" height="31.900cm" viewBox="18.291 1.700 20.857 31.900"
 xmlns="http://www.w3.org/2000/svg"
 xmlns:xlink="http://www.w3.org/1999/xlink">
<!-- Layer: Background -->
<g id="Background">
<!-- Flowchart - Terminal -->
<path stroke="#000000" fill="#FFFFFF" stroke-width="0.100"  d="M 20.383,1.800 L 26.717,1.800 C 27.591,1.800 28.300,2.248 28.300,2.800 C 28.300,3.352 27.591,3.800 26.717,3.800 L 20.383,3.800 C 19.509,3.800 18.800,3.352 18.800,2.800 C 18.800,2.248 19.509,1.800 20.383,1.800 z"/>
<text x="23.550" y="3.000"  fill="#000000" text-anchor="middle" font-size="0.80" font-family="sans" font-style="normal" font-weight="400">
START</text>
<!-- Flowchart - Box -->
<rect x="20.199" y="6.400" width="6.602" height="1.900" fill="#FFFFFF" stroke="#000000" stroke-width="0.100"  rx="0.000" />
<text x="23.500" y="7.545"  fill="#000000" text-anchor="middle" font-size="0.80" font-family="sans" font-style="normal" font-weight="400">
Download Firefox</text>
<!-- Flowchart - Diamond -->
<polygon fill="#FFFFFF" stroke="#000000" stroke-width="0.100"  points="23.426,10.516 28.418,12.613 23.426,14.710 18.435,12.613 "/>
<text x="23.426" y="12.808"  fill="#000000" text-anchor="middle" font-size="0.80" font-family="sans" font-style="normal" font-weight="400">
Directory exists?</text>
<!-- Flowchart - Box -->
<rect x="18.508" y="17.000" width="10.085" height="1.900" fill="#FFFFFF" stroke="#000000" stroke-width="0.100"  rx="0.000" />
<text x="23.550" y="18.145"  fill="#000000" text-anchor="middle" font-size="0.80" font-family="sans" font-style="normal" font-weight="400">
Uncompress file in directory</text>
<!-- Flowchart - Box -->
<rect x="32.803" y="11.500" width="6.295" height="1.900" fill="#FFFFFF" stroke="#000000" stroke-width="0.100"  rx="0.000" />
<text x="35.950" y="12.645"  fill="#000000" text-anchor="middle" font-size="0.80" font-family="sans" font-style="normal" font-weight="400">
Create directory</text>
<!-- Flowchart - Terminal -->
<path stroke="#000000" fill="#FFFFFF" stroke-width="0.100"  d="M 22.761,31.500 L 24.439,31.500 C 24.670,31.500 24.858,31.948 24.858,32.500 C 24.858,33.052 24.670,33.500 24.439,33.500 L 22.761,33.500 C 22.530,33.500 22.342,33.052 22.342,32.500 C 22.342,31.948 22.530,31.500 22.761,31.500 z"/>
<text x="23.600" y="32.700"  fill="#000000" text-anchor="middle" font-size="0.80" font-family="sans" font-style="normal" font-weight="400">
END</text>
<!-- Standard - Line -->
<line x1="23.550" y1="3.800" x2="23.509" y2="5.913" stroke="#000000" stroke-width="0.100" />
<polygon fill="#000000" stroke="#000000" stroke-width="0.100"  points="23.502,6.288 23.262,5.784 23.509,5.913 23.762,5.793 "/>
<!-- Standard - Line -->
<line x1="23.500" y1="8.300" x2="23.471" y2="9.995" stroke="#000000" stroke-width="0.100" />
<polygon fill="#000000" stroke="#000000" stroke-width="0.100"  points="23.465,10.370 23.223,9.865 23.471,9.995 23.723,9.874 "/>
<!-- Standard - Line -->
<line x1="23.486" y1="14.734" x2="23.536" y2="16.513" stroke="#000000" stroke-width="0.100" />
<polygon fill="#000000" stroke="#000000" stroke-width="0.100"  points="23.547,16.888 23.283,16.395 23.536,16.513 23.783,16.381 "/>
<!-- Standard - Line -->
<line x1="28.383" y1="12.549" x2="32.268" y2="12.498" stroke="#000000" stroke-width="0.100" />
<polygon fill="#000000" stroke="#000000" stroke-width="0.100"  points="32.643,12.493 32.146,12.750 32.268,12.498 32.140,12.250 "/>
<!-- Standard - ZigZagLine -->
<polyline fill="none" stroke="#000000" stroke-width="0.100"  points="36.200,13.650 36.050,13.650 36.050,15.867 24.005,15.867 "/>
<polygon fill="#000000" stroke="#000000" stroke-width="0.100"  points="23.630,15.867 24.130,15.617 24.005,15.867 24.130,16.117 "/>
<!-- Flowchart - Diamond -->
<polygon fill="#FFFFFF" stroke="#000000" stroke-width="0.100"  points="23.551,21.074 28.760,22.795 23.551,24.516 18.341,22.795 "/>
<text x="23.551" y="22.990"  fill="#000000" text-anchor="middle" font-size="0.80" font-family="sans" font-style="normal" font-weight="400">
Backup exists?</text>
<!-- Flowchart - Box -->
<rect x="32.878" y="21.775" width="5.745" height="1.900" fill="#FFFFFF" stroke="#000000" stroke-width="0.100"  rx="0.000" />
<text x="35.750" y="22.920"  fill="#000000" text-anchor="middle" font-size="0.80" font-family="sans" font-style="normal" font-weight="400">
Create backup</text>
<!-- Standard - Line -->
<line x1="23.550" y1="18.900" x2="23.550" y2="20.587" stroke="#000000" stroke-width="0.100" />
<polygon fill="#000000" stroke="#000000" stroke-width="0.100"  points="23.550,20.962 23.300,20.462 23.550,20.587 23.800,20.462 "/>
<!-- Standard - Line -->
<line x1="28.760" y1="22.795" x2="32.391" y2="22.733" stroke="#000000" stroke-width="0.100" />
<polygon fill="#000000" stroke="#000000" stroke-width="0.100"  points="32.766,22.727 32.270,22.985 32.391,22.733 32.262,22.485 "/>
<!-- Standard - Line -->
<line x1="23.550" y1="24.516" x2="23.597" y2="31.013" stroke="#000000" stroke-width="0.100" />
<polygon fill="#000000" stroke="#000000" stroke-width="0.100"  points="23.599,31.388 23.346,30.890 23.597,31.013 23.846,30.886 "/>
<!-- Standard - ZigZagLine -->
<polyline fill="none" stroke="#000000" stroke-width="0.100"  points="35.750,23.675 35.750,28.025 23.575,28.025 23.575,28.008 "/>
<polygon fill="#000000" stroke="#000000" stroke-width="0.100"  points="23.575,28.008 23.825,28.508 23.575,28.383 23.325,28.508 "/>
</g>
</svg>